Coordinates
version=1
nRows=9
nColumns=24
inDegrees=yes

Units are S.I. units (second, meters, Newtons, ...)
Angles are in degrees.

endheader
time	pelvis_tilt	pelvis_list	pelvis_rotation	pelvis_tx	pelvis_ty	pelvis_tz	hip_flexion_r	hip_adduction_r	hip_rotation_r	knee_angle_r	ankle_angle_r	subtalar_angle_r	mtp_angle_r	hip_flexion_l	hip_adduction_l	hip_rotation_l	knee_angle_l	ankle_angle_l	subtalar_angle_l	mtp_angle_l	lumbar_extension	lumbar_bending	lumbar_rotation
      5.52000000	    -18.75265509	     11.99811719	     -7.59097223	     -0.67681741	     -0.04690716	     -0.23603492	     21.40106613	    -11.34510230	     -0.41276697	    -64.41083652	    -29.47615468	    -20.40754137	     -6.55364547	     42.67149482	     14.51010525	      1.35924927	    -30.02590129	     21.63307472	     12.73154122	    -73.07897804	     13.59678829	     -8.82095285	      7.88007942
      5.52500000	    -18.64677246	     12.01236354	     -7.58221125	     -0.66862475	     -0.04506632	     -0.23579428	     22.47698017	    -11.10123054	     -0.21984057	    -65.62857972	    -26.91343259	    -21.39438024	    -12.30635136	     41.55367578	     14.63110682	      1.43728474	    -29.36850141	     22.11818593	     13.05530262	    -73.27792753	     13.56032951	     -8.80159896	      7.72779218
      5.53000000	    -18.62662138	     11.90651617	     -7.52965459	     -0.66057475	     -0.04326710	     -0.23550403	     23.58340191	    -10.68132436	     -0.05717052	    -66.67726643	    -24.57321498	    -22.35937624	    -17.37019612	     40.52788251	     14.62796230	      1.54736395	    -28.76353454	     22.60937646	     13.49675301	    -73.39945817	     13.57452373	     -8.66521572	      7.49571608
      5.53500000	    -18.59556805	     11.78190871	     -7.44901371	     -0.65250170	     -0.04135878	     -0.23541698	     24.57595249	    -10.25285762	      0.26686414	    -67.41559956	    -23.40114484	    -23.38049560	    -17.21876164	     39.44155666	     14.66098319	      1.77474320	    -28.07202805	     22.97015477	     13.78087714	    -73.35399701	     13.57015684	     -8.50406147	      7.21782722
      5.54000000	    -18.50852567	     11.64384644	     -7.40782419	     -0.64448617	     -0.03930966	     -0.23490461	     25.59516573	     -9.77764527	      0.28980642	    -68.31906451	    -20.10376016	    -23.62409294	    -25.69525239	     38.26595879	     14.62231545	      1.95326483	    -27.32249119	     23.33063279	     14.10026379	    -73.63568517	     13.51074643	     -8.36606604	      7.01264213
      5.54500000	    -18.51613093	     11.47190076	     -7.34257652	     -0.63647296	     -0.03731489	     -0.23465849	     26.58668144	     -9.25895851	      0.57459139	    -68.83058042	    -18.96562082	    -24.36505380	    -25.46991578	     37.16986140	     14.57053110	      2.19979273	    -26.53937584	     23.59892499	     14.35985959	    -73.59811070	     13.54598930	     -8.15774259	      6.76906336
      5.55000000	    -18.42777272	     11.33124703	     -7.27983342	     -0.62847298	     -0.03516356	     -0.23446518	     27.45207375	     -8.80640889	      0.88803246	    -69.26568712	    -17.42325870	    -24.49190518	    -25.11090928	     35.91819028	     14.60209952	      2.60440929	    -25.62532677	     23.69169295	     14.32954904	    -73.57397131	     13.47822274	     -7.99747871	      6.53545709
      5.55500000	    -18.40282534	     11.10235503	     -7.20176054	     -0.62048472	     -0.03302966	     -0.23424858	     28.32853459	     -8.26182738	      1.10645681	    -69.54839768	    -16.01483423	    -24.63624415	    -24.60818629	     34.71197083	     14.53837790	      3.07025705	    -24.70800428	     23.78884525	     14.28324686	    -73.54716084	     13.47064684	     -7.74456697	      6.29232783
      5.56000000	    -18.26659461	     10.89872709	     -7.08017456	     -0.61246227	     -0.03066996	     -0.23432650	     28.96655782	     -7.83036218	      1.47575788	    -69.47866121	    -16.25244298	    -25.22041623	    -17.31538243	     33.30044587	     14.59152435	      3.83799906	    -23.61223642	     23.59513680	     13.98788214	    -73.04403144	     13.33531633	     -7.52508552	      5.97071120
